<?xml version="1.0" encoding="UTF-8" standalone="no"?>
<!-- Created with Inkscape (http://www.inkscape.org/) -->

<svg
   xmlns:dc="http://purl.org/dc/elements/1.1/"
   xmlns:cc="http://creativecommons.org/ns#"
   xmlns:rdf="http://www.w3.org/1999/02/22-rdf-syntax-ns#"
   xmlns:svg="http://www.w3.org/2000/svg"
   xmlns="http://www.w3.org/2000/svg"
   version="1.1"
   width="744.09448"
   height="1052.3622"
   id="svg2">
  <title
     id="title3065">Vectorstash-Blooddrips</title>
  <defs
     id="defs4" />
  <metadata
     id="metadata7">
    <rdf:RDF>
      <cc:Work
         rdf:about="">
        <dc:format>image/svg+xml</dc:format>
        <dc:type
           rdf:resource="http://purl.org/dc/dcmitype/StillImage" />
        <dc:title>Vectorstash-Blooddrips</dc:title>
        <dc:creator>
          <cc:Agent>
            <dc:title>Vectorstash</dc:title>
          </cc:Agent>
        </dc:creator>
        <dc:subject>
          <rdf:Bag>
            <rdf:li>blood drips sprites</rdf:li>
          </rdf:Bag>
        </dc:subject>
      </cc:Work>
    </rdf:RDF>
  </metadata>
  <g
     id="layer1">
    <g
       transform="matrix(3.5821397,0,0,3.5821397,15.0461,18.354512)"
       id="g3026">
      <g
         transform="translate(0,-300)"
         id="layer2"
         style="display:none">
        <path
           d="M 0,0 0,500 M 25,0 25,500 M 50,0 50,500 M 75,0 75,500 M 100,0 100,500 M 125,0 125,500 M 150,0 150,500 M 175,0 175,500 M 200,0 200,500 M 225,0 225,500 M 250,0 250,500 M 275,0 275,500 M 300,0 300,500 M 325,0 325,500 M 350,0 350,500 M 375,0 375,500 M 400,0 400,500 M 425,0 425,500 M 450,0 450,500 M 475,0 475,500 M 500,0 500,500 M 0,0 500,0 M 0,25 500,25 M 0,50 500,50 M 0,75 500,75 m -500,25 500,0 m -500,25 500,0 m -500,25 500,0 m -500,25 500,0 m -500,25 500,0 m -500,25 500,0 m -500,25 500,0 m -500,25 500,0 m -500,25 500,0 m -500,25 500,0 m -500,25 500,0 m -500,25 500,0 m -500,25 500,0 m -500,25 500,0 m -500,25 500,0 m -500,25 500,0 m -500,25 500,0"
           id="path7452"
           style="fill:none;stroke:#00dc48;stroke-width:1pt;stroke-linecap:butt;stroke-linejoin:miter;stroke-opacity:1" />
        <path
           d="M 0,0 0,500 M 50,0 50,500 M 100,0 100,500 M 150,0 150,500 M 200,0 200,500 M 250,0 250,500 M 300,0 300,500 M 350,0 350,500 M 400,0 400,500 M 450,0 450,500 M 500,0 500,500 M 0,0 500,0 M 0,50 500,50 m -500,50 500,0 m -500,50 500,0 m -500,50 500,0 m -500,50 500,0 m -500,50 500,0 m -500,50 500,0 m -500,50 500,0 m -500,50 500,0 m -500,50 500,0"
           id="path7450"
           style="fill:#ff0000;fill-opacity:0.75;fill-rule:evenodd;stroke:#ff0d0d;stroke-width:1pt;stroke-linecap:butt;stroke-linejoin:miter;stroke-opacity:1" />
        <path
           d="M 0,0 0,500 M 100,0 100,500 M 200,0 200,500 M 300,0 300,500 M 400,0 400,500 M 500,0 500,500 M 0,0 500,0 M 0,100 500,100 M 0,200 500,200 M 0,300 500,300 M 0,400 500,400 M 0,500 l 500,0"
           id="path6564"
           style="fill:none;stroke:#000000;stroke-width:1pt;stroke-linecap:butt;stroke-linejoin:miter;stroke-opacity:1" />
      </g>
      <g
         transform="translate(0,-852.3622)"
         id="layer1-7"
         style="display:inline">
        <path
           d="m 0.17740098,855.38978 42.04124402,-0.20944 6.037836,0 1.341732,-0.20944 c -2.012632,-2.09444 -5.814217,-1.67555 -5.814217,-1.67555 -1.788957,0.20944 -13.864668,0.20944 -13.864668,0.20944 -0.894486,0 -26.83481,0.20945 -26.83481,0.20945 z"
           id="path38318-4-2"
           style="fill:#ff0000;stroke:none;display:inline" />
        <path
           d="m 50.418872,855.28759 42.041248,-0.20944 6.03783,0 1.34173,-0.20944 c -2.01263,-2.09444 -5.81421,-1.67555 -5.81421,-1.67555 -1.78896,0.20944 -13.86467,0.20944 -13.86467,0.20944 -0.894486,0 -26.834811,0.20944 -26.834811,0.20944 z"
           id="path38318-4-2-84"
           style="fill:#ff0000;stroke:none;display:inline" />
        <path
           d="m 21.758759,854.32438 c -6.923561,0.20085 -13.846982,0.40649 -20.77026102,0.61693 0.97933902,0.48343 2.03148102,0.80689 2.98634002,1.34117 0.517922,0.40254 0.792829,1.01511 1.043827,1.60195 0.30502,0.59594 0.728329,1.12053 1.173575,1.61686 0.09897,0.25223 0.418766,0.40387 0.656277,0.24812 0.268159,-0.13138 0.434819,-0.39915 0.658528,-0.58984 0.698018,-0.67772 1.096364,-1.59114 1.745504,-2.30729 0.466548,-0.40766 1.124847,-0.38855 1.705317,-0.4625 0.981725,-0.0296 1.990074,-0.009 2.926965,0.31602 0.410674,0.14485 0.792837,0.3779 1.082324,0.70693 0.832916,0.89608 1.287744,2.12696 1.2481,3.34926 0.04751,1.15708 0.05568,2.33746 0.411292,3.45128 0.265662,0.51534 0.756034,0.92745 1.332229,1.03717 0.29894,-0.0415 0.436359,-0.40125 0.39341,-0.67058 0.09492,-1.47382 -0.03897,-2.95857 0.160941,-4.42586 0.324358,-1.15459 1.087331,-2.18331 2.117095,-2.80269 0.989662,-0.58761 2.156259,-0.78573 3.290936,-0.84648 1.024575,-0.0382 2.101016,0.0977 2.981179,0.65927 0.49838,0.2767 0.920988,0.73234 1.059826,1.29613 0.373994,1.09154 0.415181,2.26153 0.730873,3.36709 0.115769,0.34409 0.241302,0.73677 0.558396,0.94643 0.239111,0.15638 0.545736,0.10823 0.779956,-0.0323 0.577412,-0.303 0.828925,-0.9723 0.899608,-1.58674 0.119161,-0.91681 0.128391,-1.84591 0.27201,-2.7595 0.104333,-0.55903 0.358839,-1.10814 0.820179,-1.45999 0.742955,-0.63024 1.768957,-0.83689 2.718732,-0.7043 0.761676,0.112 1.530417,0.39368 2.091599,0.93677 0.633165,0.71293 0.912795,1.64516 1.249662,2.5176 0.342533,0.93521 0.646529,1.89205 1.110799,2.77555 0.212747,0.31535 0.721439,0.33707 0.956701,0.0358 0.349929,-0.35039 0.51836,-0.83426 0.717718,-1.27761 0.29401,-0.74039 0.60642,-1.47494 0.954275,-2.19155 0.290631,-0.56369 0.610172,-1.13991 1.09976,-1.55575 0.84707,-0.64298 1.862906,-0.99413 2.842286,-1.37925 0.5692,-0.22198 1.153129,-0.41132 1.717694,-0.64145 0.224489,-0.17805 0.0885,-0.58357 -0.212719,-0.55281 -0.355606,-0.0435 -0.715137,0.0191 -1.072101,-0.009 -2.353845,0.0445 -4.707991,-0.0244 -7.061748,-0.0487 -2.961081,-0.0462 -5.922715,-0.0749 -8.883003,-0.15887 -2.193949,-0.0883 -4.384064,-0.25535 -6.577953,-0.34256 -0.638546,-0.0197 -1.277367,-0.0299 -1.916128,-0.0151 z"
           id="path39188"
           style="fill:#ff0000;stroke:none;display:inline" />
        <path
           d="m 71.346306,854.24391 c -2.86226,0.10939 -5.72583,0.18483 -8.588604,0.28087 -3.571655,0.11577 -7.143358,0.22995 -10.715312,0.33606 1.067464,0.5593 2.229147,0.89438 3.343985,1.34117 0.608109,0.63438 0.73093,1.53887 0.911996,2.36046 0.406526,2.04622 0.625837,4.12238 0.911996,6.18727 0.136781,0.38399 0.156154,0.8203 0.429175,1.14447 0.343843,0.17423 0.700095,-0.11751 0.894114,-0.38447 0.614231,-0.76843 0.812959,-1.75577 1.099759,-2.6734 0.397568,-1.47089 0.651645,-2.97674 1.063996,-4.44375 0.27798,-0.65052 0.970127,-1.03786 1.654111,-1.09976 0.816276,-0.17225 1.647524,-0.32893 2.485636,-0.28611 0.554505,0.15829 0.812385,0.76811 0.839912,1.30042 0.320622,2.82876 0.488555,5.67238 0.805944,8.50153 0.114141,1.12791 0.286972,2.26546 0.701326,3.32615 0.106919,0.23395 0.253507,0.60816 0.574516,0.54324 0.355036,-0.0985 0.437157,-0.51093 0.560742,-0.80778 0.430039,-1.0758 0.813412,-2.17607 1.013856,-3.32026 0.247176,-1.265 0.102276,-2.60049 0.573329,-3.82098 0.166422,-0.41337 0.443037,-0.88248 0.929878,-0.93882 0.439432,-0.009 0.748323,0.38666 0.878383,0.76808 0.439135,1.13524 0.497954,2.37941 0.956765,3.50936 0.156577,0.36439 0.752626,0.39993 0.945546,0.0501 0.924233,-1.171 1.478927,-2.57875 1.910173,-3.99329 0.217901,-0.66146 0.451852,-1.39123 1.058285,-1.80057 0.36925,-0.24672 0.905046,-0.24704 1.231015,0.0761 0.565072,0.45631 0.758958,1.19856 0.94104,1.86982 0.24014,0.94089 0.382664,1.92769 0.865906,2.7853 0.164265,0.2836 0.398397,0.61714 0.762022,0.61559 0.427996,-0.0991 0.606415,-0.56352 0.754978,-0.92831 0.671738,-1.73853 1.456298,-3.43766 2.419125,-5.03543 0.226942,-0.43313 0.491591,-0.90085 0.971025,-1.09035 0.799693,-0.38919 1.917157,-0.0548 2.269904,0.78904 0.379417,0.84755 0.3476,1.79754 0.45714,2.7024 0.113148,1.3272 0.245517,2.66236 0.592335,3.95203 0.16654,0.53287 0.450182,1.1134 1.00275,1.32732 0.355124,0.13198 0.722941,-0.13423 0.856603,-0.45741 0.313764,-0.65109 0.618874,-1.30835 0.877974,-1.98352 0.20081,-0.60915 0.39391,-1.22158 0.56612,-1.8392 0.18773,-0.77277 0.16925,-1.57577 0.28657,-2.35974 0.0213,-0.32057 0.093,-0.63848 0.29681,-0.8952 0.28332,-0.41526 0.59444,-0.81478 0.8108,-1.27077 0.3757,-0.5746 1.0064,-0.90152 1.6067,-1.19152 0.74045,-0.4629 1.4102,-1.06622 2.2518,-1.34469 0.71556,-0.29624 1.477,-0.45681 2.21034,-0.70166 0.24037,-0.19884 -0.0728,-0.5994 -0.33082,-0.47389 -0.78658,0.0731 -1.57377,-0.0349 -2.36122,-0.0266 -6.853425,-0.18596 -13.706573,-0.38293 -20.559807,-0.57487 -1.339558,-0.0127 -2.679157,-0.0753 -4.018617,-0.0245 z"
           id="path39188-4"
           style="fill:#ff0000;stroke:none;display:inline" />
        <path
           d="m 100.24047,855.32393 42.04124,-0.20944 6.03784,0 1.34173,-0.20944 c -2.01263,-2.09444 -5.81422,-1.67555 -5.81422,-1.67555 -1.78895,0.20944 -13.86466,0.20944 -13.86466,0.20944 -0.89449,0 -26.83481,0.20945 -26.83481,0.20945 z"
           id="path38318-4-2-84-3"
           style="fill:#ff0000;stroke:none;display:inline" />
        <path
           d="m 121.37197,854.34226 c -4.91462,0.1163 -9.82872,0.25312 -14.74213,0.41284 -1.50273,0.0465 -3.00546,0.0932 -4.50814,0.14151 0.0957,0.29878 0.4768,0.25154 0.68847,0.42023 0.90435,0.4381 1.84394,0.81891 2.6734,1.39482 0.30974,2.1289 0.57818,4.26446 0.96419,6.38147 0.21084,1.10381 0.43247,2.2075 0.72569,3.29284 0.0494,0.26763 0.21569,0.55317 0.51692,0.56907 0.31731,0.0605 0.61902,-0.13855 0.77119,-0.40797 0.43503,-0.66091 0.45628,-1.479 0.63607,-2.22756 0.26172,-1.28328 0.56557,-2.5727 1.1364,-3.75842 0.39662,-0.80278 0.80259,-1.62737 1.45957,-2.25385 0.45114,-0.44886 1.03801,-0.73704 1.64029,-0.925 0.28035,-0.0536 0.58552,-0.17223 0.8525,-0.006 0.43681,0.21456 0.63061,0.69776 0.73391,1.14556 0.24461,0.84666 0.48568,1.69431 0.7204,2.54377 0.18805,0.2545 0.59188,0.40216 0.57224,0.76893 0.10244,3.18478 0.0833,6.38174 0.47388,9.54914 0.10678,0.76552 0.2471,1.53683 0.54541,2.25316 0.14476,0.27321 0.49891,0.49555 0.79854,0.32679 0.37845,-0.18778 0.59082,-0.58662 0.77868,-0.94672 0.40503,-0.89098 0.44729,-1.8836 0.59935,-2.83681 0.20461,-1.61949 0.37575,-3.24397 0.65887,-4.85235 0.0745,-0.41138 0.17168,-0.81855 0.20386,-1.23593 0.0153,-0.25052 0.27106,-0.54856 0.51927,-0.33493 0.28103,0.21748 0.32531,0.60469 0.47756,0.90789 0.27249,0.67985 0.59701,1.3907 1.20337,1.83704 0.5264,0.33095 1.30282,0.13525 1.59563,-0.41771 0.65078,-0.90288 0.74193,-2.05072 1.1493,-3.0604 0.2514,-0.61459 0.64323,-1.16326 1.12703,-1.61618 0.17278,-0.18868 0.46829,-0.38937 0.71484,-0.20781 0.40697,0.25285 0.61489,0.7046 0.88697,1.08118 0.45776,0.7668 0.66854,1.65157 0.78757,2.52842 0.20286,0.93355 0.41138,1.90657 0.99886,2.68496 0.21507,0.18863 0.58719,0.336 0.82259,0.0984 0.46717,-0.38176 0.57979,-1.00665 0.82426,-1.52826 0.67643,-1.72714 1.11882,-3.53736 1.81954,-5.25555 0.21242,-0.4939 0.46979,-0.98283 0.83982,-1.3758 0.41457,-0.33791 1.0824,-0.22858 1.40718,0.18411 0.95212,0.84208 1.52867,2.02965 1.8188,3.25167 0.39515,1.50385 0.6006,3.06665 1.20331,4.50924 0.12075,0.27163 0.37415,0.49582 0.68497,0.48685 0.37024,0.0318 0.69981,-0.20243 0.90339,-0.49449 0.69391,-0.77827 1.20152,-1.74736 1.32645,-2.79094 0.18112,-1.09807 0.27591,-2.20825 0.43674,-3.30894 0.16717,-0.96045 0.3094,-1.96326 0.8329,-2.8068 0.30275,-0.46202 0.75653,-0.81483 1.28075,-0.98929 0.45604,-0.14942 0.93706,-0.25387 1.33944,-0.53096 0.61545,-0.40497 1.19591,-0.8893 1.90837,-1.11766 0.39365,-0.16566 0.81621,-0.24563 1.22267,-0.36287 0.27914,-0.11486 0.17142,-0.60295 -0.1362,-0.57567 -0.36519,-0.0371 -0.73165,0.0196 -1.09705,-0.02 -4.18237,-0.0778 -8.36375,-0.20002 -12.54576,-0.29433 -4.25002,-0.1117 -8.50078,-0.21655 -12.75229,-0.23661 -0.16661,0.002 -0.33323,0.004 -0.49984,0.005 z"
           id="path39188-4-3"
           style="fill:#ff0000;stroke:none;display:inline" />
        <path
           d="m 149.6049,855.24717 42.04126,-0.20944 6.03783,0 1.34171,-0.20944 c -2.01263,-2.09444 -5.8142,-1.67555 -5.8142,-1.67555 -1.78897,0.20944 -13.86466,0.20944 -13.86466,0.20944 -0.89448,0 -26.83481,0.20944 -26.83481,0.20944 z"
           id="path38318-4-2-84-3-5"
           style="fill:#ff0000;stroke:none;display:inline" />
        <path
           d="m 162.83202,853.58226 c -1.63283,0.46814 -3.26367,1.02799 -4.97127,1.13553 -1.12347,0.0442 -2.24743,0.0902 -3.37208,0.0629 -0.64671,-0.009 -1.29303,-0.0202 -1.93895,-0.045 -0.27216,-0.0592 -0.55596,0.2491 -0.35765,0.49176 0.33072,0.30586 0.79824,0.37242 1.16774,0.61778 0.61242,0.31568 1.20711,0.77141 1.45057,1.44014 0.26417,0.66226 0.31418,1.38285 0.41783,2.0821 0.40213,3.12758 0.71135,6.26604 1.08572,9.39686 0.11615,0.95452 0.25688,1.91619 0.58118,2.8254 0.18522,0.3175 0.71346,0.2537 0.85835,-0.0715 0.35616,-0.57622 0.45609,-1.26155 0.58926,-1.91404 0.29427,-1.72582 0.47865,-3.46874 0.80687,-5.18907 0.0723,-0.33749 0.11237,-0.6872 0.21327,-1.01544 0.18274,-0.25474 0.62736,-0.26941 0.78682,0.0179 0.34803,0.46425 0.53609,1.05862 1.01929,1.4127 0.40907,0.23002 0.89039,0.025 1.2607,-0.18776 0.34268,-0.16406 0.8027,0.0647 0.87623,0.43811 0.55183,1.26576 1.16306,2.5065 1.63748,3.80483 0.41697,1.06988 0.73028,2.18444 0.85299,3.32845 0.14024,1.52111 0.18179,3.04977 0.29802,4.57293 0.11624,1.74135 0.24713,3.48221 0.41244,5.21937 0.0712,0.39198 0.31147,0.84229 0.75106,0.88517 0.42784,0.007 0.78537,-0.36472 0.84351,-0.77515 0.084,-0.41274 0.0267,-0.8397 0.0691,-1.25784 0.1286,-2.92576 0.26704,-5.85437 0.61671,-8.76366 0.19374,-1.77477 0.4518,-3.54251 0.76477,-5.30006 0.0705,-0.27406 0.0551,-0.57581 0.19153,-0.82886 0.18367,-0.26755 0.65977,-0.13047 0.69814,0.18299 0.43063,1.05592 0.59253,2.19341 0.76672,3.31296 0.19756,1.37239 0.30483,2.75998 0.58888,4.1183 0.20217,0.75316 0.61567,1.53027 1.35698,1.86543 0.30574,0.15649 0.72641,-10e-4 0.83169,-0.33555 0.55323,-1.12709 0.68953,-2.39211 0.88215,-3.61667 0.22034,-1.49616 0.47389,-2.9883 0.79363,-4.46645 0.0348,-0.28756 0.22058,-0.66304 0.56413,-0.60502 0.35241,0.15223 0.43853,0.56188 0.55348,0.88989 0.32012,0.98376 0.42615,2.01836 0.64463,3.02633 0.32491,1.74573 0.51606,3.51543 0.89482,5.25102 0.12119,0.50525 0.31251,1.0663 0.81294,1.31178 0.32046,0.20353 0.79757,0.22088 1.05838,-0.0884 0.42588,-0.43458 0.50097,-1.07787 0.584,-1.65342 0.15579,-1.2881 0.20961,-2.58627 0.35636,-3.87555 0.0954,-0.98825 0.3197,-1.95764 0.59472,-2.91012 0.61388,-2.27609 1.20328,-4.55892 1.8035,-6.83854 0.16206,-0.49002 0.29515,-1.00942 0.59341,-1.43559 0.36784,-0.31978 0.98767,-0.10201 1.14079,0.34256 0.53717,0.98503 0.67901,2.11797 0.88885,3.20434 0.23476,1.31623 0.40339,2.64353 0.57552,3.96911 0.23029,1.83093 0.36861,3.67248 0.57843,5.50511 0.0288,0.25365 0.14513,0.53246 0.41262,0.60975 0.37977,0.13613 0.79306,0.0724 1.18273,0.027 0.30579,-0.11418 0.3105,-0.49835 0.35578,-0.77097 0.12913,-1.49229 0.14326,-2.99782 0.40042,-4.47644 0.1499,-0.77748 0.34391,-1.58439 0.83867,-2.22195 0.18388,-0.25055 0.49651,-0.32984 0.79295,-0.32711 0.32675,0.006 0.68156,-0.0668 0.88799,-0.34348 0.47493,-0.71831 0.54266,-1.60256 0.70926,-2.42562 0.31089,-1.69766 0.62326,-3.4068 1.22202,-5.03128 0.41878,-0.9058 1.0961,-1.7145 1.99558,-2.17045 0.43006,-0.2444 0.87778,-0.45643 1.3037,-0.7086 0.2084,-0.24185 -0.0267,-0.66541 -0.33976,-0.63482 -0.57471,-0.0598 -1.15304,0.0194 -1.72919,-0.0208 -3.43959,-0.049 -6.87968,-0.0134 -10.31941,-0.003 -2.16691,0.0403 -4.33437,0.0574 -6.50153,0.0452 -2.44778,0.0684 -4.89527,0.14762 -7.3434,0.20263 -1.85164,-0.1765 -3.70249,-0.39514 -5.52443,-0.77711 -0.92116,-0.17447 -1.83709,-0.37668 -2.76401,-0.51936 l -0.0516,0.009 -0.002,2.9e-4 z"
           id="path39188-4-3-2"
           style="fill:#ff0000;stroke:none;display:inline" />
        <path
           d="m 0.32023798,904.63027 42.04124302,-0.20944 6.037836,0 1.341732,-0.20944 c -2.012632,-2.09444 -5.814217,-1.67555 -5.814217,-1.67555 -1.788957,0.20944 -13.864668,0.20944 -13.864668,0.20944 -0.894486,0 -26.834809,0.20945 -26.834809,0.20945 z"
           id="path38318-4-2-0"
           style="fill:#ff0000;stroke:none;display:inline" />
        <path
           d="m 50.561708,904.52808 42.041242,-0.20944 6.03784,0 1.34173,-0.20944 c -2.01263,-2.09444 -5.81422,-1.67555 -5.81422,-1.67555 -1.78895,0.20944 -13.864664,0.20944 -13.864664,0.20944 -0.894486,0 -26.834811,0.20944 -26.834811,0.20944 z"
           id="path38318-4-2-84-5"
           style="fill:#ff0000;stroke:none;display:inline" />
        <path
           d="m 100.3833,904.56442 42.04124,-0.20944 6.03784,0 1.34173,-0.20944 c -2.01263,-2.09444 -5.81422,-1.67555 -5.81422,-1.67555 -1.78895,0.20944 -13.86466,0.20944 -13.86466,0.20944 -0.89449,0 -26.83481,0.20945 -26.83481,0.20945 z"
           id="path38318-4-2-84-3-3"
           style="fill:#ff0000;stroke:none;display:inline" />
        <path
           d="m 149.74773,904.48766 42.04126,-0.20944 6.03783,0 1.34171,-0.20944 c -2.01263,-2.09444 -5.8142,-1.67555 -5.8142,-1.67555 -1.78897,0.20944 -13.86466,0.20944 -13.86466,0.20944 -0.89448,0 -26.83481,0.20944 -26.83481,0.20944 z"
           id="path38318-4-2-84-3-5-4"
           style="fill:#ff0000;stroke:none;display:inline" />
        <path
           d="m 0.10152498,903.9586 c 0.769625,0.71943 1.56112402,1.61438 2.68750002,1.6875 1.096524,0.15797 2.208407,0.14174 3.3125,0.0937 1.0024,0.15816 1.456881,1.30637 1.40625,2.21875 -0.06279,0.87207 0.996892,1.75428 1.8125,1.3125 0.82927,-0.50786 0.712871,-1.60718 1.106896,-2.38517 0.407344,-0.89615 1.572291,-1.18934 2.455604,-0.89608 0.993116,0.45948 0.899177,1.75591 1.5625,2.5 0.71631,0.81887 2.026871,0.0166 2.169396,-0.91642 0.341263,-0.87207 1.139893,-1.54917 2.097493,-1.58119 0.79562,-0.10471 1.721305,0.037 2.233111,0.71636 0.581636,0.65808 0.32108,1.58171 0.3125,2.37031 -0.119299,0.90097 0.73112,1.88264 1.65625,1.44219 0.842277,-0.43544 0.686105,-1.5444 0.628209,-2.33329 -0.07551,-0.72124 0.108825,-1.55955 0.778547,-1.94826 0.793526,-0.48172 1.737909,-0.32566 2.609571,-0.25053 1.37915,0.0682 2.761331,-0.0497 4.139923,-0.0929 1.007963,0.14101 1.498286,1.23293 1.4375,2.15625 0.236329,0.80713 1.503891,1.22658 2.03125,0.46875 0.510412,-0.78069 0.06661,-2.24135 1.240626,-2.47861 1.126736,-0.28505 2.292298,-0.0551 3.437488,-0.11514 1.111138,0.0179 2.246623,-0.054 3.339062,0.15156 0.996651,0.49628 0.813308,1.86189 1.607824,2.53594 0.834762,0.52211 1.835867,-0.47736 1.657447,-1.33657 -0.186021,-0.8242 0.464605,-1.58747 1.311303,-1.56968 1.082016,0.27784 1.335624,-1.82982 0.15625,-1.59375 -0.966954,-0.0814 -1.933768,0.17337 -2.900926,0.14107 -3.740048,-0.12376 -7.482936,0.0794 -11.224074,-0.0161 -10.958333,-0.10417 -21.916667,-0.20833 -32.87500002,-0.3125 l -0.180319,0.03 -0.0072,0.001 z"
           id="path38318-4-2-0-2"
           style="fill:#ff0000;stroke:none;display:inline" />
        <path
           d="m -0.25091672,955.23523 42.04124372,-0.20944 6.037836,0 1.341732,-0.20944 c -2.012632,-2.09444 -5.814217,-1.67555 -5.814217,-1.67555 -1.788957,0.20944 -13.864668,0.20944 -13.864668,0.20944 -0.894486,0 -26.83481,0.20945 -26.83481,0.20945 z"
           id="path38318-4-2-0-6"
           style="fill:#ff0000;stroke:none;display:inline" />
        <path
           d="m 49.990554,955.13304 42.041246,-0.20944 6.03784,0 1.34173,-0.20944 c -2.01263,-2.09444 -5.81422,-1.67555 -5.81422,-1.67555 -1.78896,0.20944 -13.864668,0.20944 -13.864668,0.20944 -0.894486,0 -26.834811,0.20944 -26.834811,0.20944 z"
           id="path38318-4-2-84-5-5"
           style="fill:#ff0000;stroke:none;display:inline" />
        <path
           d="m 99.81215,955.16938 42.04123,-0.20944 6.03784,0 1.34173,-0.20944 c -2.01263,-2.09444 -5.81422,-1.67555 -5.81422,-1.67555 -1.78895,0.20944 -13.86466,0.20944 -13.86466,0.20944 -0.89449,0 -26.8348,0.20945 -26.8348,0.20945 z"
           id="path38318-4-2-84-3-3-7"
           style="fill:#ff0000;stroke:none;display:inline" />
        <path
           d="m 149.17657,955.09262 42.04126,-0.20944 6.03783,0 1.34171,-0.20944 c -2.01263,-2.09444 -5.8142,-1.67555 -5.8142,-1.67555 -1.78897,0.20944 -13.86466,0.20944 -13.86466,0.20944 -0.89448,0 -26.83481,0.20944 -26.83481,0.20944 z"
           id="path38318-4-2-84-3-5-4-7"
           style="fill:#ff0000;stroke:none;display:inline" />
        <path
           d="m 45.914025,954.55235 c -1.701908,0.19564 -3.400371,0.51851 -5.120278,0.43422 -3.540047,-0.0527 -7.080275,-0.1488 -10.620209,-0.1746 -3.026464,0.0763 -6.05128,-0.13546 -9.078012,-0.13186 -7.008389,-0.0456 -14.016838,-0.0847 -21.02525102,-0.12776 0.34566,1.11118 1.62345702,1.52961 2.09375002,2.5625 0.319516,1.01817 -0.0078,2.08766 0.09375,3.125 0.271199,0.71737 1.183634,0.88103 1.8125,0.5625 0.640257,-0.65311 0.625789,-1.65615 0.8125,-2.5 0.119928,-0.87142 0.853099,-1.62134 1.75,-1.65625 1.002887,-0.11632 1.438532,0.9636 1.53125,1.78125 0.04797,0.97038 0.03784,1.94254 0.08154,2.91384 0.04333,1.79175 0.0063,3.58978 -0.237788,5.36741 -0.131935,0.77717 0.48413,2.05663 1.413508,1.5745 0.829983,-0.37412 0.779137,-1.41946 0.819855,-2.18982 0.02635,-2.25328 0.143514,-4.50371 0.311879,-6.75081 2.54e-4,-0.93692 0.108922,-2.00332 0.942807,-2.58985 0.64002,-0.47631 1.553343,-0.56764 2.271682,-0.21741 0.921948,0.3627 1.570681,1.35505 1.441629,2.35109 -0.158816,0.83962 0.279157,2.22109 1.36114,1.8848 0.939666,-0.64211 0.367431,-1.85854 0.528857,-2.76689 0.205207,-0.8846 0.995788,-1.52111 1.889894,-1.59657 1.018878,-0.1066 2.054686,-0.0824 3.074069,-0.0127 1.16784,0.15402 2.137559,1.21698 2.146201,2.40222 0.112652,0.91173 -0.243147,1.81554 -0.107771,2.72398 0.137396,0.85136 1.511632,1.24742 1.894254,0.36774 0.466069,-1.14442 -0.03856,-2.37645 0.0745,-3.55524 0.09593,-0.91744 0.756181,-1.87278 1.75,-1.90625 0.919519,-0.16549 1.857781,0.0494 2.78125,-0.0937 0.955573,-0.15804 2.12193,0.48212 2.035851,1.55426 0.06264,1.00164 1.375509,2.00833 2.078348,0.92799 0.437654,-0.82236 0.487987,-2.09896 1.624667,-2.28035 0.897096,-0.20086 1.816296,0.0683 2.724984,-0.0231 0.997091,-0.15581 2.221152,0.16533 2.536123,1.243 0.425354,1.07483 0.311411,2.2607 0.481801,3.38554 0.06799,0.56334 -0.320058,1.59232 0.611976,1.53641 1.073927,-0.22388 0.399171,-1.53815 0.526174,-2.27649 -0.0309,-1.15496 -0.126763,-2.38874 0.442576,-3.44226 0.57414,-0.79611 1.64986,-0.53339 2.489351,-0.65536 1.026653,0.14555 1.50937,-1.38073 0.479399,-1.71964 -0.237001,-0.0575 -0.478413,-0.0784 -0.71875,-0.0312 z"
           id="path38318-4-2-0-2-4"
           style="fill:#ff0000;stroke:none;display:inline" />
        <path
           d="m 1.17766,1005.2352 42.041243,-0.2095 6.037836,0 1.341732,-0.2094 c -2.012632,-2.0944 -5.814217,-1.6755 -5.814217,-1.6755 -1.788957,0.2094 -13.864668,0.2094 -13.864668,0.2094 -0.894486,0 -26.834809,0.2094 -26.834809,0.2094 z"
           id="path38318-4-2-0-6-5"
           style="fill:#ff0000;stroke:none;display:inline" />
        <path
           d="m 51.41913,1005.133 42.04124,-0.2094 6.03784,0 1.34174,-0.2095 c -2.01264,-2.0944 -5.81422,-1.6755 -5.81422,-1.6755 -1.78896,0.2094 -13.864672,0.2094 -13.864672,0.2094 -0.894486,0 -26.834811,0.2094 -26.834811,0.2094 z"
           id="path38318-4-2-84-5-5-7"
           style="fill:#ff0000;stroke:none;display:inline" />
        <path
           d="m 101.24072,1005.1693 42.04124,-0.2094 6.03784,0 1.34173,-0.2094 c -2.01263,-2.0945 -5.81422,-1.6756 -5.81422,-1.6756 -1.78895,0.2094 -13.86466,0.2094 -13.86466,0.2094 -0.89449,0 -26.83481,0.2095 -26.83481,0.2095 z"
           id="path38318-4-2-84-3-3-7-9"
           style="fill:#ff0000;stroke:none;display:inline" />
        <path
           d="m 150.60515,1005.0926 42.04126,-0.2095 6.03783,0 1.34171,-0.2094 c -2.01263,-2.0944 -5.8142,-1.6756 -5.8142,-1.6756 -1.78897,0.2095 -13.86466,0.2095 -13.86466,0.2095 -0.89448,0 -26.83481,0.2094 -26.83481,0.2094 z"
           id="path38318-4-2-84-3-5-4-7-8"
           style="fill:#ff0000;stroke:none;display:inline" />
        <path
           d="m 3.445275,1003.0523 c -0.977416,0.1828 -1.683901,0.9322 -2.50000002,1.4375 0.88398102,-0.1786 2.09671302,0.3805 2.03125002,1.4062 -0.252551,1.0482 0.288364,2.183 1.15625,2.7813 0.983364,1.241 1.171573,2.9026 1.15625,4.4375 0.05924,1.0171 1.50825,1.9217 2.242014,0.9446 0.814249,-1.0044 0.547242,-2.3757 0.711133,-3.5699 0.08626,-1.1029 0.139315,-2.2079 0.203103,-3.3122 0.336874,-1.062 1.604841,-1.4781 2.625,-1.4063 1.153138,-0.038 2.053803,1.1468 2.028041,2.2396 0.104655,1.2959 0.05945,2.6098 0.346959,3.8854 0.453585,0.8002 1.815368,1.0966 2.375,0.25 0.591139,-1.0925 0.374069,-2.3896 0.717553,-3.5553 0.173326,-0.9034 0.647156,-2.0198 1.688697,-2.1322 1.926244,-0.48 3.928172,-0.1642 5.867078,0.066 1.00333,0.2212 2.328583,0.2263 2.851672,1.2783 0.393502,0.9264 0.398014,1.9541 0.557809,2.9235 0.169376,0.7383 0.904561,1.5886 1.723441,1.2015 1.078057,-0.4196 1.172368,-1.7278 1.335174,-2.7126 0.03476,-0.9035 0.353505,-1.9262 1.289826,-2.2561 1.563792,-0.6021 3.275295,-0.3194 4.907017,-0.5089 1.007116,-0.142 2.282321,0.2833 2.55376,1.3709 0.51853,1.7322 0.281678,3.5661 0.437762,5.3466 0.07093,1.4453 0.463968,2.8484 0.570211,4.2914 0.08346,0.8898 0.358665,2.1161 1.5,2.0313 1.284891,-0.032 0.553174,-1.4719 0.755539,-2.2719 0.05521,-2.3686 0.08232,-4.7407 0.275711,-7.1032 0.231232,-1.0215 0.03179,-2.2375 0.71875,-3.0937 0.680592,-0.7891 1.789019,-0.6583 2.71875,-0.5938 0.795963,0.089 2.157069,0.063 2.25,-0.9687 -0.09493,-1.1376 -1.42614,-1.2134 -2.296169,-1.0129 -1.860203,0.2437 -3.74574,0.1487 -5.617822,0.2093 -3.980186,0.076 -7.96074,0 -11.93581,-0.2171 -8.354374,-0.4287 -16.704626,-0.9397 -25.056449,-1.4169 l -0.180319,0.03 -0.0072,0 z"
           id="path38318-4-2-0-2-4-3"
           style="fill:#ff0000;stroke:none;display:inline" />
        <path
           d="m 88.632775,903.17735 c -0.942689,0.16037 -1.430581,1.46401 -2.521181,1.04016 -2.662958,-0.16007 -5.333858,-0.1292 -8.000654,-0.12934 -3.529613,0.0556 -7.059397,-0.0502 -10.589005,-0.0765 -5.254598,-0.0886 -10.50896,-0.19379 -15.76416,-0.24055 -0.22358,0.95113 0.807427,1.6351 1.650806,1.6728 1.107628,0.14444 2.311855,0.008 3.317944,0.5772 0.89905,0.55213 1.349986,1.65959 1.3125,2.6875 0.107031,0.78692 -0.07037,1.66225 0.34375,2.375 0.424832,0.89218 1.686776,0.53076 1.977539,-0.2772 0.512053,-0.84632 0.956515,-1.73329 1.49436,-2.56602 0.376172,-0.78597 1.194318,-1.76216 2.160359,-1.29378 0.852807,0.56315 0.875413,1.70914 1.00878,2.62454 0.202801,0.97474 -0.08952,1.99626 0.233962,2.94996 0.241813,0.88434 1.504054,0.87145 1.90625,0.125 0.422048,-0.80781 0.07058,-1.77291 0.194806,-2.65141 0.03479,-0.92511 0.159995,-1.86678 0.523944,-2.72359 0.376628,-0.85665 1.37588,-1.47813 2.3125,-1.1875 0.952788,0.19008 1.283026,1.19321 1.4375,2.03125 0.246005,1.27931 0.0478,2.59557 0.28125,3.875 0.18038,1.01158 1.637396,1.24547 2.03125,0.25 0.39592,-0.96662 0.05742,-2.04336 0.125,-3.05781 0.06508,-0.94553 -0.224175,-2.31033 0.84375,-2.78594 0.675219,-0.39157 1.392071,0.1347 1.375,0.875 0.07444,0.78949 0.752428,1.89733 1.65625,1.40625 0.787534,-0.60883 0.21327,-2.06007 1.1875,-2.5 0.872058,-0.29416 1.64926,0.70534 1.498803,1.52407 0.218057,1.05787 1.599923,1.14009 2.032447,2.00718 0.267512,1.07095 -0.239968,2.14068 -0.203569,3.21343 -0.117722,0.86864 1.020847,1.75074 1.630268,0.89382 0.555387,-0.82087 0.163162,-1.87211 0.426254,-2.77826 0.284242,-1.22342 0.399094,-2.50089 0.865797,-3.67274 0.256346,-0.91011 1.571739,-1.77291 2.227278,-0.74147 0.547839,0.56814 0.826922,1.37289 1.522722,1.80397 0.505875,0.84764 2.170135,0.76975 2.049445,-0.4319 -0.0106,-0.83808 0.37464,-2.3172 1.49898,-1.85404 0.87279,0.3988 1.35698,1.37726 1.54413,2.27876 0.29671,0.87385 -0.12062,2.07986 0.71995,2.69468 0.85117,0.54288 1.73247,-0.35723 1.57552,-1.24484 0.0716,-1.0032 -0.13016,-2.07681 0.36198,-3.00516 0.29217,-0.85297 1.09379,-1.9413 0.40625,-2.78125 -0.7676,-0.70777 -1.90962,-0.24308 -2.83196,-0.20809 -0.99498,0.14899 -2.00687,0.11568 -3.00415,0.17829 -1.01749,0.23743 -1.695148,-0.67623 -2.601395,-0.9077 l -0.09375,0 -0.125,0.0312 z"
           id="path38318-4-2-0-2-0"
           style="fill:#ff0000;stroke:none;display:inline" />
        <path
           d="m 146.38278,902.80235 c -1.06554,0.57338 -2.17682,1.27152 -3.4375,1.1875 -3.65311,0.0765 -7.3061,0.19291 -10.95931,0.24368 -9.52428,-0.15846 -19.04825,-0.33425 -28.57194,-0.52493 -0.97238,-0.65691 -1.5431,1.55521 -0.41094,1.5 1.05342,0.29418 2.15726,0.32621 3.22344,0.5625 1.01975,0.33594 1.8226,1.28296 1.94185,2.35207 0.33058,1.70451 0.41841,3.44605 0.43315,5.17918 0.15926,1.09255 1.81353,1.55303 2.15625,0.3125 0.31208,-1.03026 0.1234,-2.13831 0.55022,-3.14452 0.29992,-0.92757 0.54498,-1.95182 1.19978,-2.69923 0.6794,-0.48677 1.87818,-0.4498 2.25,0.40625 0.46867,0.94718 0.36894,2.04022 0.54997,3.05685 0.1218,1.35412 0.3404,2.70501 0.29378,4.06815 -0.4043,0.7205 0.23257,1.87294 1.09375,1.71875 0.92491,-0.25068 0.98175,-1.45074 0.9375,-2.25 0.0554,-1.23008 -0.0462,-2.46319 0.0277,-3.69487 0.0423,-0.96031 0.097,-2.0751 0.97231,-2.68013 0.79117,-0.61787 2.0513,-0.71176 2.84375,-0.0312 0.66725,0.76964 0.67133,1.89033 0.6875,2.86092 0.0691,1.66922 0.18324,3.34226 0.0937,5.01408 0.13542,2.08333 0.27083,4.16667 0.40625,6.25 0.54454,0.54174 1.84074,0.0258 1.41082,-0.7765 0.0518,-2.36428 0.15327,-4.72903 0.0953,-7.09371 0.0409,-1.18484 0.087,-2.37978 0.36891,-3.53604 0.37229,-0.83854 1.45572,-1.02878 2.26689,-0.81489 0.91046,0.42166 1.69271,-0.57587 2.15405,-1.23853 0.45224,-0.8933 1.77061,-1.23019 2.56039,-0.60745 0.85385,0.66115 1.0458,1.79508 1.16413,2.80406 0.19253,1.63016 0.23886,3.27789 0.22954,4.91931 0.0375,0.75808 0.99254,1.32549 1.65625,0.9375 0.68503,-0.54772 0.61848,-1.52918 0.44224,-2.29852 -0.16271,-0.99438 -9.2e-4,-2.0091 0.0475,-3.00808 0.2436,-1.01857 0.006,-2.08329 0.29152,-3.08395 0.22439,-1.04761 1.66532,-0.64823 1.70062,0.28665 0.18784,0.92538 0.33581,1.85311 0.49151,2.78316 0.0268,0.96605 1.31406,1.88182 1.96415,0.85199 0.56721,-0.88875 0.23257,-2.0402 0.69289,-2.98223 0.47045,-0.78679 0.87093,-1.64457 1.49461,-2.33027 0.69127,-0.92849 1.99519,-0.31115 2.08378,0.7376 0.0904,0.90621 0.38288,1.78061 0.83699,2.57268 0.60731,1.24874 0.69116,2.66315 0.72078,4.02803 -0.095,0.77921 0.80178,1.82548 1.4522,0.97419 0.57057,-0.90144 0.0402,-1.9731 0.17286,-2.95442 0.0932,-1.86038 0.023,-3.72661 0.21555,-5.58146 0.10061,-0.88218 0.22911,-1.76157 0.49119,-2.61213 0.1571,-0.72916 -0.374,-1.92959 -1.28585,-1.66449 z"
           id="path38318-4-2-0-2-0-2"
           style="fill:#ff0000;stroke:none;display:inline" />
        <path
           d="m 194.66403,903.1461 c -4.74349,0.34378 -9.49235,0.65914 -14.25,0.6875 -6.71844,0.0955 -13.4372,0.15775 -20.15625,0.1875 -1.90255,-0.12542 -3.81626,-0.19967 -5.6875,-0.59375 -0.96558,-0.108 -1.66269,1.37234 -0.826,1.95795 0.75963,0.662 1.72989,1.30786 1.8885,2.3858 0.59041,3.62759 1.03892,7.27698 1.34038,10.93993 0.10784,1.14391 0.18939,2.29008 0.28462,3.43507 -0.2618,0.71696 0.26463,1.69182 1.0625,1.71875 0.98577,-0.16501 0.97664,-1.42799 0.96875,-2.20936 -0.0882,-0.94793 0.0401,-1.89626 0.011,-2.84319 0.0778,-0.72631 -0.27395,-1.41809 -0.29222,-2.1037 0.40725,-0.60039 1.17833,-0.11507 1,0.5 0.38192,0.82313 1.866,0.81388 2.09375,-0.125 0.3707,-1.47783 0.0735,-3.00652 0.10868,-4.50764 0.10713,-1.01656 -0.31641,-2.13796 0.11007,-3.08611 0.43878,-0.90098 1.82883,-0.81879 2.125,0.15625 0.47079,0.83329 0.32382,1.82591 0.59375,2.71875 0.71059,4.35611 1.19651,8.74359 1.71875,13.125 0.0434,0.79947 -0.25122,2.15688 0.83657,2.34255 0.78224,-0.60601 0.31856,-1.69797 0.28932,-2.5194 0.15576,-1.95355 0.29442,-3.90968 0.40221,-5.86634 0.0935,-2.52867 0.18423,-5.05953 0.0741,-7.58931 -0.002,-0.96092 -0.0884,-2.11703 0.80409,-2.7425 0.80285,-0.75096 1.82874,0.12726 1.9856,0.98887 0.28497,1.00215 0.22231,2.06479 0.32671,3.09559 0.17145,2.76324 0.37317,5.52474 0.50019,8.29054 0.23628,0.93654 -0.32289,1.97433 0.25,2.84375 0.7106,0.92494 2.01677,-0.39063 1.58534,-1.2722 -0.0884,-0.27374 -0.0295,-0.68739 0.35216,-0.6028 0.24004,-3.04497 0.26115,-6.11888 0.8519,-9.12525 0.1944,-0.92814 0.56954,-1.87444 1.2731,-2.531 0.82146,-0.72377 2.06694,-1.12095 3.08749,-0.57813 0.83227,0.4328 1.24223,1.30649 1.47501,2.17188 0.58812,1.91334 0.93502,3.88757 1.34375,5.84375 0.14552,0.91811 0.014,2.07232 0.9375,2.625 0.91872,0.43529 1.60863,-0.75641 1.46875,-1.55311 -0.2442,-1.60304 -0.0796,-3.22997 -0.0937,-4.84375 0.0225,-1.05162 -0.045,-2.11136 0.0327,-3.158 0.0165,-0.89202 1.17408,-1.90738 1.95535,-1.14541 0.85906,0.59703 0.76539,1.73447 0.84285,2.65269 -0.006,0.88202 0.36382,2.38479 1.53505,2.07042 1.0348,-0.21185 1.09988,-1.5495 2.00905,-1.92909 1.04615,-0.4627 2.05469,0.44111 2.45675,1.35101 0.62072,1.14888 0.87004,2.45084 0.9495,3.74274 0.22476,1.09879 0.23048,2.23096 0.125,3.34375 -0.1292,0.77022 0.75392,1.87809 1.4375,1.03125 0.59502,-0.87446 0.009,-1.95719 0.125,-2.92811 0.11664,-1.85386 0.18228,-3.71049 0.34914,-5.56141 0.19935,-2.73404 0.42956,-5.46566 0.65086,-8.19798 -0.0191,-1.02084 -0.47948,-2.10866 -1.46875,-2.53125 -0.27599,-0.0702 -0.56067,-0.12315 -0.84375,-0.0625 z"
           id="path38318-4-2-0-2-0-2-2"
           style="fill:#ff0000;stroke:none;display:inline" />
        <path
           d="m 95.60153,954.11485 c -11.685689,0.28299 -23.374727,0.37381 -35.062505,0.53125 -2.135166,-0.0664 -4.280995,0.0331 -6.40625,-0.21875 -0.833986,-0.45096 -2.101047,0.32467 -1.795949,1.30706 0.245605,1.01672 0.676698,1.99315 1.045949,2.97419 0.381527,0.94488 1.778337,0.93582 2.293754,0.13249 0.402205,-0.57975 0.76543,-1.47206 1.639053,-1.38249 0.826647,-0.0675 1.306849,0.74317 1.42403,1.4586 0.169809,0.92492 0.117666,1.87824 0.233704,2.81219 0.28245,3.4749 0.525909,6.95659 0.57973,10.44273 -0.170631,0.94415 0.844356,2.04012 1.735979,1.34898 0.753887,-0.7517 0.376994,-1.931 0.34375,-2.875 -0.206283,-2.61704 0.150338,-5.23185 0.28125,-7.84375 0.152169,-1.39384 0.178143,-2.80335 0.40625,-4.1875 0.198447,-0.81393 0.781284,-1.75204 1.745307,-1.59375 0.921769,0.15596 1.331866,1.17668 1.473443,2 0.445789,2.6741 0.872625,5.35122 1.28125,8.03125 0.36372,0.91869 1.888143,0.86695 2.230495,-0.0421 0.369542,-1.1384 0.482474,-2.34645 0.707005,-3.52045 0.283589,-1.84872 0.686979,-3.67528 1.09375,-5.5 0.334396,-0.81219 1.25488,-1.67434 2.1875,-1.3125 1.076035,0.51132 1.626147,1.72979 1.65625,2.875 0.170869,1.20168 0.365078,2.4066 0.3125,3.625 0.149328,1.22687 0.71476,2.35473 0.9375,3.5625 0.179836,0.95584 -0.107506,2.09761 0.5,2.90625 0.290272,0.40357 1.369991,0.41846 1.108931,-0.21343 0.143364,-1.54033 0.112946,-3.10446 0.498926,-4.61282 0.229854,-1.04562 0.500312,-2.10379 1.079643,-3.0175 0.813464,-0.89344 2.053506,-1.26579 2.8125,-2.21875 0.618571,-0.76753 2.094132,-0.56712 1.9375,0.59375 -0.0239,0.80969 -0.133079,2.09593 0.96875,2.1875 1.156056,0.004 1.656284,-1.28413 1.754355,-2.25832 0.15579,-1.05426 0.230258,-2.21305 0.964395,-3.05418 0.784892,-0.81369 2.177173,-0.60094 2.737235,0.36305 0.61534,0.94231 0.80006,2.09992 1.40038,3.05591 0.57082,0.82072 0.96321,1.7826 0.89364,2.79979 -0.38157,0.85687 0.46898,1.94403 1.375,1.5 0.83359,-0.48471 0.67427,-1.68967 0.57965,-2.51904 -0.0984,-0.96386 -0.0384,-1.9406 -0.0318,-2.9087 -0.0353,-0.91093 0.35108,-1.83273 1.12323,-2.34626 0.69426,-0.53496 1.71518,-1.30281 1.15341,-2.29576 -0.18506,-0.44374 -0.73336,-0.71526 -1.1995,-0.58649 z"
           id="path38318-4-2-0-2-4-36"
           style="fill:#ff0000;stroke:none;display:inline" />
        <path
           d="m 144.85153,954.67735 c -12.66601,0.22164 -25.33331,0.35599 -38,0.53125 -1.13721,-0.0968 -2.27268,-0.2109 -3.40625,-0.34375 -0.97686,0.2202 -1.40121,1.54477 -0.84375,2.34375 0.24335,0.88091 0.47457,2.02594 1.46875,2.34375 1.45108,0.28009 3.09402,0.51894 4.125,1.6875 0.73925,1.07641 0.53984,2.45387 0.6875,3.6875 0.27039,4.68491 0.57681,9.3693 0.65625,14.0625 0.23755,1.06891 2.193,1.00192 2.15625,-0.1875 0.15374,-1.16191 0.0852,-2.3425 0.125,-3.51248 -0.0119,-3.70216 -0.036,-7.4061 -0.079,-11.10708 -0.15387,-1.03822 0.41598,-2.32156 1.5478,-2.47419 0.84189,-0.11255 1.69103,0.41065 2.1875,1.0625 0.63034,0.83903 0.5288,1.94915 0.70347,2.93211 0.2263,2.32913 0.28049,4.67028 0.42153,7.00539 -0.19825,0.99005 1.31889,1.68522 1.9375,0.875 0.58703,-0.8728 0.38126,-1.96333 0.625,-2.9375 0.39391,-2.73078 0.63612,-5.48021 0.96875,-8.21875 0.4216,-1.25929 1.75085,-2.22202 3.09375,-2.0625 1.03115,0.39825 1.71973,1.44043 1.78125,2.53125 0.45426,3.12525 0.70426,6.27976 0.75,9.4375 -0.27344,0.83768 0.15221,2.11819 1.1875,2.0625 0.97546,-0.50196 0.83627,-1.77433 0.90151,-2.70403 0.0913,-2.41764 0.19016,-4.86608 0.87974,-7.20222 0.13764,-0.99601 0.52495,-2.11697 1.53125,-2.53125 1.06298,-0.15514 1.8827,0.89251 2.13272,1.82 0.27785,0.9208 0.50408,1.89312 1.02353,2.71125 0.79014,0.73237 2.21765,0.24928 2.40625,-0.8125 0.38982,-1.67142 0.42836,-3.4096 0.86992,-5.07345 0.32204,-0.90894 0.43172,-2.00573 1.14388,-2.70177 0.86517,-0.6242 2.12355,-0.16331 2.5487,0.77522 1.13196,1.7023 1.27773,3.81503 1.39161,5.79817 0.0309,1.82759 -0.004,3.65875 0.10839,5.48308 0.17649,1.09123 1.77972,1.44461 2.46875,0.625 0.717,-0.8578 0.1575,-2.08065 0.28191,-3.10368 -0.0574,-2.79162 -0.0161,-5.59954 0.36053,-8.36905 0.16985,-1.07942 1.14951,-1.8159 1.42006,-2.83977 0.089,-0.85996 -0.64381,-1.80502 -1.5625,-1.59375 z m -17.28125,2.53125 c 0.005,0.27034 -0.22775,-0.33854 0,0 z"
           id="path38318-4-2-0-2-4-36-7"
           style="fill:#ff0000;stroke:none;display:inline" />
        <path
           d="m 195.94528,953.8336 c -7.83775,0.40022 -15.68279,0.68156 -23.53125,0.71875 -5.59274,0.16395 -11.1865,0.27819 -16.78125,0.34375 -1.02415,-0.22249 -2.28209,-0.11061 -2.9375,0.8125 -0.63699,1.30004 0.15912,2.98123 1.46875,3.5 1.2952,0.69011 2.89386,1.24508 3.53125,2.6875 1.03217,6.15092 0.98585,12.40715 1.26573,18.61995 -0.11885,0.85483 0.0472,2.24728 1.25834,1.88125 1.123,-0.39025 0.63816,-1.77612 0.80386,-2.67136 0.14069,-3.29745 0.28138,-6.59489 0.42207,-9.89234 -0.0809,-0.845 -0.34354,-2.20749 0.75,-2.5 0.93289,0.50744 0.79069,1.98187 1.91351,2.26925 1.04143,0.45519 1.74508,1.50306 1.75538,2.6417 0.37249,2.67917 0.53014,5.38152 0.59629,8.08373 0.067,0.79888 -0.44349,1.72675 0.13027,2.42932 0.68645,0.75182 1.45726,-0.35881 1.3858,-1.08025 0.0191,-1.25012 0.29755,-2.48237 0.41119,-3.72703 0.48746,-3.62962 0.86517,-7.27152 1.22101,-10.91603 0.17526,-1.57815 0.34555,-3.15861 0.5553,-4.73194 0.36164,-1.12041 2.03906,-1.15452 2.31808,0.0612 0.56178,1.07526 1.419,1.94817 2.05071,2.97431 0.46813,0.91946 0.71325,1.94057 0.97496,2.93326 0.21129,1.04022 -0.47876,1.962 -0.40625,3 0.0512,1.06205 0.11162,2.12237 0.125,3.1875 0.0745,2.74034 0.64747,5.44043 0.75,8.17811 0.22985,0.97079 -0.37612,2.15376 0.21875,2.97814 0.85606,0.43276 1.58944,-0.60251 1.15219,-1.33901 -0.11477,-3.66188 0.21431,-7.31631 0.34781,-10.97349 0.32303,-3.38849 0.67893,-6.77819 1.3125,-10.125 0.34048,-0.97595 1.92302,-1.24861 2.4375,-0.28125 0.68069,1.04937 1.1803,2.20404 1.78969,3.29348 0.84722,1.75466 1.05849,3.71925 1.08531,5.64402 -0.45291,0.70348 0.78588,1.84376 1.03125,0.75 0.21999,-1.67884 0.0522,-3.38816 0.34375,-5.0625 0.10731,-1.93468 0.0763,-3.912 0.65625,-5.78125 0.46441,-0.94978 1.72744,-1.35698 2.59622,-0.69055 1.22364,0.77382 1.66626,2.28138 1.90378,3.62805 0.39392,2.57833 0.39247,5.1959 0.5557,7.79475 0.0858,2.01583 0.23718,4.03011 0.1943,6.049 0.0405,1.11212 1.99922,1.38056 2.12354,0.17748 0.40173,-1.39506 0.17839,-2.86221 0.33362,-4.28944 0.20039,-3.52522 0.36859,-7.05242 0.60534,-10.57554 0.15228,-1.61352 0.27742,-3.24089 0.58906,-4.82968 0.28471,-0.924 0.9821,-1.65282 1.75469,-2.20157 0.66323,-0.61075 1.07455,-1.76323 0.375,-2.5 -0.36733,-0.38406 -0.90825,-0.59896 -1.4375,-0.46875 z m -18.65625,3.09375 c 0.12613,0.19884 -0.19884,-0.12613 0,0 z m 14.3125,5.71875 c -4.2e-4,0.13631 -0.14982,-0.13255 0,0 z m -23.59375,3.34375 c -0.0798,0.11211 -0.0798,-0.11211 0,0 z m -0.25,2.0625 c 0.15165,0.45546 -0.13738,0.23907 0,0 z"
           id="path38318-4-2-0-2-4-36-7-1"
           style="fill:#ff0000;stroke:none;display:inline" />
        <path
           d="m 53.539025,1003.271 c -0.834719,0.1778 -1.483058,0.7633 -2.21875,1.1563 0.998156,-0.2349 2.258691,0.6582 2,1.75 -0.06374,1.3269 1.144769,2.1689 1.59375,3.3125 0.659393,1.2911 0.516646,2.7889 0.90625,4.1562 0.454836,0.8471 2.011389,0.8487 2.28125,-0.1562 0.667457,-2.1622 0.333253,-4.494 1,-6.6563 0.611694,-1.1741 2.323241,-1.3485 3.34375,-0.625 1.210906,1.6518 1.125493,3.8028 1.28125,5.75 0.139244,3.1155 0.29529,6.2301 0.46875,9.3438 -0.209783,0.8067 -0.235009,2.1673 0.83657,2.3113 1.018429,-0.3531 1.067053,-1.6132 0.997302,-2.5205 -0.09323,-3.0005 0.375615,-5.9813 0.416128,-8.9783 1.041197,-0.3936 1.983382,0.6259 3.03125,0.4062 0.744404,-0.7703 2.327971,-0.1318 2.21875,0.9688 0.119124,2.3268 -0.21815,4.6673 0.159742,6.982 0.0507,0.9973 0.524759,2.2456 1.676828,2.3293 0.927059,0.085 1.67059,-0.8988 1.41343,-1.78 -0.01806,-1.7671 -0.04327,-3.5526 0.395558,-5.2791 0.269417,-1.205 0.466487,-2.4252 0.541942,-3.6585 0.200845,-0.8815 1.20243,-1.5766 2.080452,-1.1945 0.815365,0.3228 2.116342,0.5583 2.525043,-0.4725 0.31645,-0.982 1.647883,-0.8098 1.681148,0.243 0.273662,0.893 1.546594,1.3204 2.182107,0.549 0.58314,-0.6936 0.455651,-1.6622 0.620309,-2.4859 0.176322,-0.982 1.421737,-1.4567 2.267186,-1.0062 1.072151,0.3878 1.685162,1.5446 1.69448,2.6427 0.23117,1.3729 0.08006,2.8287 0.636775,4.1307 0.474335,0.9362 1.096495,1.8325 1.156465,2.9153 0.13138,1.3432 0.32599,2.6809 0.46854,4.0222 0.11426,0.8536 0.80814,1.7477 1.75,1.625 1.11417,-0.1083 1.31641,-1.3096 1.25,-2.214 0.0105,-3.6657 -0.50182,-7.3235 -0.30002,-10.9889 0.10161,-0.8178 0.005,-1.7553 0.58127,-2.4221 0.45322,-0.7178 1.42489,-0.622 2.125,-0.9063 0.86361,-0.3137 0.90095,-1.6276 0.0937,-2.0312 -0.89259,-0.3752 -1.90812,-0.056 -2.85921,-0.177 -13.132627,-0.2595 -26.262145,-0.6609 -39.390795,-1.073 -0.302994,-0.01 -0.60434,0.01 -0.90625,0.031 z m 25.6875,5.2188 c -0.105569,0.2543 0.03926,-0.4091 0,0 z"
           id="path38318-4-2-0-2-4-3-5"
           style="fill:#ff0000;stroke:none;display:inline" />
        <path
           d="m 104.35153,1003.896 c -0.94048,-0.01 -1.72078,0.5657 -2.46875,1.0625 1.00612,-0.2106 2.0784,0.7224 2,1.75 0.31058,1.7307 1.71353,3.0236 2.03125,4.75 0.13487,2.8533 0.2714,5.7066 0.34375,8.5626 -0.26108,0.9825 1.05053,1.5657 1.4375,0.5625 0.16675,-1.0081 -0.0186,-2.0584 0.18786,-3.0761 0.16437,-1.7856 0.98763,-3.4363 1.11647,-5.2303 0.20655,-1.6527 0.39684,-3.3218 0.91442,-4.9124 0.44413,-1.0183 1.93304,-1.3326 2.7771,-0.6174 0.97727,0.7435 0.83806,2.0968 1.09935,3.1723 0.41502,2.686 0.4381,5.415 0.60283,8.1245 0.0768,1.3976 0.14026,2.7957 0.14572,4.1956 0.55284,1.6972 1.04373,3.415 1.4375,5.1563 0.81253,1.0008 1.82778,-0.6658 1.22566,-1.4551 -0.14914,-1.0455 -0.0249,-2.1119 -0.0978,-3.1652 0.0509,-2.6877 0.0594,-5.398 0.48717,-8.0549 0.22966,-0.9434 0.93992,-1.8925 1.99691,-1.8766 1.05001,-0.085 2.28739,0.4848 2.54431,1.583 0.27106,2.6398 0.0348,5.3222 0.5625,7.9375 0.20916,1.5285 0.36631,3.0646 0.5625,4.5938 0.32966,1.1035 2.11012,0.9258 2.06955,-0.3038 0.2211,-1.0619 -0.0655,-2.1561 0.12901,-3.2224 0.15041,-2.6866 0.29901,-5.3781 0.73894,-8.0363 -0.0217,-0.8175 -0.14178,-2.2399 0.99282,-2.3114 1.05044,0.3251 0.68735,1.6536 0.97593,2.4676 0.5588,0.9456 2.25475,0.1094 1.6887,-0.9303 -0.13765,-0.7904 -0.0829,-1.638 0.3113,-2.351 0.71271,-0.7025 1.90804,0.014 1.9988,0.8991 -0.0836,1.2526 0.006,2.5027 0.15225,3.7469 0.10843,1.1014 -0.0494,2.2398 0.1302,3.3228 0.40903,0.9592 2.05918,0.3562 1.65625,-0.6515 -0.0205,-1.042 -0.48334,-2.0942 -0.15625,-3.1297 0.39052,-2.5548 1.07775,-5.0548 1.90625,-7.5001 0.59708,-0.7974 1.89845,-0.8721 2.5625,-0.125 1.25289,2.4849 1.49045,5.3073 2.3125,7.9376 1.01353,4.2503 0.76856,8.6493 1.08239,12.9764 0.19404,1.0545 -0.13924,2.3171 0.38636,3.2423 0.81542,0.6347 2.03635,-0.259 1.67859,-1.2405 -0.2105,-4.6387 0.84949,-9.2179 0.79016,-13.8532 0.04,-2.4812 -0.17267,-4.9599 -0.0351,-7.4403 0.0506,-0.8685 -0.008,-1.9273 0.80284,-2.4865 0.54276,-0.6054 1.59807,-0.5506 1.951,-1.3233 0.41063,-0.7516 -0.23224,-1.7885 -1.09375,-1.75 -1.15008,-0.091 -2.30399,0.052 -3.45453,-0.044 -12.70413,-0.2699 -25.40574,-0.6422 -38.10797,-0.9875 -0.125,0.01 -0.25,0.021 -0.375,0.031 z m 25.40625,5.1563 c -0.16601,0.3651 0.0663,-0.4231 0,0 z"
           id="path38318-4-2-0-2-4-3-5-5"
           style="fill:#ff0000;stroke:none;display:inline" />
        <path
           d="m 153.88278,1004.0835 c -0.87546,0.5835 -0.20524,1.6422 0.17508,2.321 1.87523,4.8708 2.23333,10.1525 2.3956,15.3212 0.11553,2.6317 -0.16398,5.3493 0.67932,7.8891 0.4184,0.9049 0.0826,2.1753 0.96875,2.8438 0.91156,0.5887 1.65142,-0.6331 1.61809,-1.4551 0.19172,-5.5126 0.62539,-11.0177 0.93252,-16.5261 -0.176,-0.8774 0.52658,-1.633 1.37971,-1.6739 0.8863,-0.1115 1.24576,0.815 1.49014,1.4931 1.43633,3.7436 1.37045,7.8092 1.71171,11.7466 0.14218,2.0455 0.30818,4.0894 0.46158,6.1341 0.18219,0.9632 1.87632,1.1516 2.0625,0.094 0.2949,-4.7882 0.15471,-9.5945 0.59375,-14.375 0.11423,-1.3689 0.052,-2.9067 0.96875,-4.0313 0.91333,-0.6377 2.20508,0.1909 2.26627,1.2391 0.92236,3.2548 0.86453,6.6675 1.30286,9.9996 0.17874,0.9838 0.0474,2.0854 0.52462,2.9801 0.65015,0.6394 2.01219,0.1859 1.89018,-0.8072 0.39803,-3.9406 0.21443,-7.9226 0.76607,-11.849 0.3954,-1.0285 2.17004,-0.7086 2.21875,0.375 0.29787,1.1427 -0.34197,2.4206 0.34375,3.4687 0.76472,0.8182 2.27507,-0.1171 1.96875,-1.1562 -0.0971,-1.3841 -0.62057,-2.766 -0.3125,-4.1563 0.61979,-0.9283 2.3317,-0.2615 2.1875,0.8437 0.3372,7.3151 0.72059,14.6277 1.15625,21.9376 0.61276,0.4919 1.68205,1.5776 2.3642,0.6072 0.0518,-1.4115 -0.18961,-2.8316 -0.0905,-4.2493 -0.0366,-3.6203 0.0346,-7.2461 0.28876,-10.8579 0.20545,-3.0486 0.6267,-6.0767 1.09375,-9.0938 0.12154,-0.9529 1.36205,-1.7785 2.0625,-0.8438 0.56988,0.9342 0.51988,2.1092 0.7157,3.1632 0.93889,6.7211 2.04711,13.4171 2.97803,20.1396 0.1446,1.3344 0.4803,2.66 0.50676,3.9999 -0.22756,0.7839 0.36774,2.3696 1.33076,1.6349 0.82029,-0.8602 0.33081,-2.154 0.26103,-3.1946 -0.36147,-4.0898 -0.17927,-8.2011 -0.25461,-12.3006 0.17932,-5.2731 0.37584,-10.5455 0.58733,-15.8174 0.26339,-1.2043 1.34276,-2.0151 1.6875,-3.1875 -0.1401,-1.1755 -0.7533,-3.2862 -1.84821,-3.0848 -13.13854,-0.2017 -26.98407,0.7235 -40.12054,0.4286 -0.43004,0.112 -0.88223,-0.1119 -1.3125,0 z m 5.90625,2.875 c -0.0884,0.1535 -0.0884,-0.1535 0,0 z m 20.375,2.0625 c -0.15945,0.4554 0.0577,-0.4387 0,0 z"
           id="path38318-4-2-0-2-4-3-5-5-4"
           style="fill:#ff0000;stroke:none;display:inline" />
      </g>
    </g>
  </g>
</svg>
